<?xml version="1.0" encoding="utf-8"?>
<!-- Generator: Adobe Illustrator 26.0.0, SVG Export Plug-In . SVG Version: 6.00 Build 0)  -->
<svg version="1.1" id="图层_1" xmlns="http://www.w3.org/2000/svg" xmlns:xlink="http://www.w3.org/1999/xlink" x="0px" y="0px"
	 viewBox="0 0 1366 768" style="enable-background:new 0 0 1366 768;" xml:space="preserve">
<style type="text/css">
	.st0{fill:#FEFEFE;}
	.st1{fill:#89326C;}
	.st2{fill:#F5EAF8;}
	.st3{fill:#B54B95;}
	.st4{fill:#FDB501;}
	.st5{fill:#875D00;}
</style>
<g>
	<path class="st0" d="M437.93,341.39c0,62.83-0.02,125.67,0.07,188.5c0,2.49-0.4,3.1-3.03,3.1C309.04,532.9,183.12,532.9,57.19,533
		c-2.87,0-3.18-0.8-3.18-3.33c0.07-125.79,0.07-251.59-0.01-377.38c0-2.61,0.43-3.29,3.22-3.29c125.8,0.09,251.6,0.09,377.4,0
		c2.95,0,3.38,0.82,3.38,3.51C437.91,215.47,437.93,278.43,437.93,341.39z M69.83,426.7l-0.05-0.07c0.77,5.99,3.9,11.02,7.18,15.78
		c22.71,32.87,54.92,49.44,94.07,52.92c22.1,1.96,43.78-1.79,64.79-8.82c25.94-8.68,47.19-23.47,60.8-47.83
		c0.44-0.79,0.88-1.5,1.86-1.66c6.74,0.36,13.48,0.43,20.21-0.25c22.12-2.26,42.26-10.17,61.46-21
		c16.18-9.13,30.05-20.55,39.01-37.14c14.43-26.72,17.59-55.04,11.2-84.41c-9.23-42.39-32.52-74.16-72.54-92.53
		c-23.41-10.75-48.36-14.24-73.95-14.77c-25.45-0.53-48.56,6.54-69.66,20.27c-20.39,13.27-34.58,31.05-38.42,55.79
		c-11.58,2.94-23.01,6.3-33.87,11.35c-19.83,9.22-37.69,21.07-52.2,37.7c-6.91,7.92-13.04,16.3-17.96,25.54
		c-9.96,18.72-15.33,38.44-12.44,59.85c1.34,9.95,4.79,19.15,9.84,27.79C69.26,425.77,68.86,426.55,69.83,426.7z"/>
	<path class="st1" d="M175.79,262.99c3.85-24.74,18.04-42.53,38.42-55.79c21.1-13.73,44.21-20.8,69.66-20.27
		c25.59,0.53,50.53,4.02,73.95,14.77c40.02,18.37,63.31,50.13,72.54,92.53c6.39,29.37,3.23,57.69-11.2,84.41
		c-8.96,16.6-22.83,28.01-39.01,37.14c-19.21,10.83-39.35,18.74-61.46,21c-6.73,0.69-13.46,0.62-20.2,0.25
		c-0.13-1.28,0.16-2.45,0.75-3.6c10.65-20.84,11.44-43.54,11.74-66.12c0.14-10.33-0.78-20.78-2.67-31.08
		c-2.94-16.05-8.38-30.96-18.86-43.66c-2.17-2.63-4.13-6.05-8.18-6.59l0,0c-0.02-0.7-0.14-1.3-1.06-1.19c0,0,0-0.01,0-0.01
		c0.13-0.84-0.43-1.01-1.07-1.1c-4.06-3.68-8.09-7.39-12.76-10.33c-16.35-10.28-34.51-13.79-53.47-14.24
		C200.36,258.81,188.04,260.56,175.79,262.99z M381.74,382.05c-0.12,7.72,5.24,11.29,11.47,8.15c6.49-3.27,9.63-9.03,10.11-15.94
		c0.46-6.62-5.15-10.2-11.1-7.29C385.75,370.13,382.72,375.82,381.74,382.05z"/>
	<path class="st2" d="M175.79,262.99c12.25-2.42,24.58-4.18,37.1-3.88c18.96,0.45,37.13,3.96,53.47,14.24
		c4.67,2.94,8.69,6.66,12.76,10.33c0.11,0.61,0.51,0.93,1.07,1.1c0,0,0,0.01,0.01,0.01c0.15,0.58,0.41,1.06,1.06,1.19c0,0,0,0,0,0
		c3.12,4.93,6.57,9.65,8.87,15.09c8.49,20.11,7.55,40.36,0.64,60.54c-8.13,23.74-22.57,43.28-41.98,58.92
		c-33.89,27.31-72.67,40.47-116.36,37.59c-25.17-1.66-47.11-10.39-62.63-31.49c0,0,0.05,0.07,0.05,0.07
		c-0.22-0.49-0.45-0.99-0.67-1.48c-5.05-8.64-8.5-17.85-9.84-27.79c-2.89-21.41,2.48-41.13,12.44-59.85
		c4.91-9.23,11.05-17.62,17.96-25.54c14.51-16.63,32.38-28.48,52.2-37.7C152.78,269.29,164.21,265.93,175.79,262.99z M82.12,385.89
		c0.02,20.53,8.8,35.11,25.88,44.52c20.48,11.27,42.26,11.78,64.35,6.26c30.86-7.71,55.18-25.51,73.43-51.01
		c12.91-18.04,20.48-38.49,19.64-61.17c-0.48-13.01-5.74-23.77-16.57-31.58c-12.92-9.31-27.48-14.22-43.17-13.41
		c-44.39,2.28-80.42,20.65-105.93,57.67C89.48,352.09,82.67,368.39,82.12,385.89z"/>
	<path class="st3" d="M69.79,426.63c15.52,21.09,37.46,29.83,62.63,31.49c43.7,2.88,82.47-10.28,116.36-37.59
		c19.41-15.65,33.85-35.19,41.98-58.92c6.91-20.18,7.85-40.43-0.64-60.54c-2.29-5.44-5.75-10.16-8.87-15.09
		c4.05,0.53,6.01,3.95,8.18,6.59c10.48,12.69,15.91,27.61,18.86,43.66c1.89,10.3,2.8,20.76,2.67,31.08
		c-0.3,22.59-1.09,45.29-11.74,66.12c-0.59,1.15-0.88,2.32-0.75,3.6c-0.98,0.16-1.42,0.88-1.86,1.66
		c-13.61,24.36-34.86,39.15-60.8,47.83c-21,7.03-42.68,10.78-64.79,8.82c-39.15-3.48-71.37-20.05-94.07-52.92
		C73.69,437.66,70.56,432.63,69.79,426.63z"/>
	<path class="st3" d="M69.16,425.22c0.22,0.49,0.45,0.99,0.67,1.48C68.86,426.55,69.26,425.77,69.16,425.22z"/>
	<path class="st3" d="M381.74,382.05c0.98-6.22,4.02-11.91,10.47-15.07c5.95-2.91,11.56,0.67,11.1,7.29
		c-0.48,6.91-3.62,12.67-10.11,15.94C386.97,393.33,381.61,389.77,381.74,382.05z"/>
	<path class="st3" d="M280.2,284.78c-0.56-0.17-0.96-0.49-1.07-1.1C279.76,283.77,280.32,283.95,280.2,284.78z"/>
	<path class="st3" d="M281.26,285.98c-0.65-0.13-0.91-0.61-1.06-1.19C281.12,284.68,281.25,285.28,281.26,285.98z"/>
	<path class="st4" d="M82.12,385.89c0.55-17.5,7.35-33.81,17.63-48.72c25.51-37.02,61.54-55.39,105.93-57.67
		c15.7-0.81,30.26,4.1,43.17,13.41c10.83,7.81,16.09,18.56,16.57,31.58c0.84,22.69-6.73,43.14-19.64,61.17
		c-18.26,25.5-42.57,43.3-73.43,51.01c-22.09,5.52-43.87,5.01-64.35-6.26C90.92,421,82.14,406.42,82.12,385.89z M198.74,307.02
		c0.07-5.92-3.7-10.48-8.75-10.58c-5.99-0.12-11.19,5.59-11.37,12.49c-0.14,5.55,4.01,10.58,8.83,10.69
		C193.34,319.74,198.66,313.8,198.74,307.02z M227.44,354.84c6.74,0.07,13.25-5.91,13.23-12.15c-0.02-4.96-3.91-8.69-9.2-8.8
		c-6.64-0.14-13.11,5.85-13.17,12.22C218.25,351.17,222.04,354.79,227.44,354.84z M183.38,413.24c8.07,0.05,14.49-9.01,11.7-16.54
		c-1.42-3.83-5.32-6.32-9.04-5.76c-6.05,0.91-11.05,6.56-11.23,12.67C174.65,409.22,178.19,413.2,183.38,413.24z M183.81,355.66
		c-0.05-5.56-3.4-9.12-8.58-9.13c-6.39-0.01-12.26,6.19-12.31,13.01c-0.04,4.95,4.05,9.29,8.78,9.34
		C177.94,368.94,183.87,362.47,183.81,355.66z M127.89,386.21c-6.21,0-12.15,6.14-12.26,12.69c-0.09,5.23,4.06,9.81,8.79,9.7
		c6.26-0.15,12.04-6.31,12.11-12.9C136.6,390.02,133.13,386.21,127.89,386.21z M135.12,349.34c0.07-6.19-3.68-10.88-8.72-10.91
		c-5.69-0.03-10.83,5.8-10.94,12.41c-0.1,6.41,3.41,10.74,8.72,10.76C130.1,361.63,135.04,356.09,135.12,349.34z"/>
	<path class="st5" d="M198.74,307.02c-0.08,6.79-5.4,12.73-11.29,12.59c-4.82-0.11-8.97-5.14-8.83-10.69
		c0.18-6.9,5.38-12.61,11.37-12.49C195.04,296.53,198.81,301.1,198.74,307.02z"/>
	<path class="st5" d="M227.44,354.84c-5.4-0.06-9.19-3.67-9.14-8.72c0.06-6.37,6.53-12.36,13.17-12.22c5.29,0.11,9.18,3.84,9.2,8.8
		C240.7,348.93,234.18,354.91,227.44,354.84z"/>
	<path class="st5" d="M183.38,413.24c-5.18-0.04-8.72-4.02-8.56-9.63c0.18-6.11,5.18-11.75,11.23-12.67
		c3.71-0.56,7.62,1.93,9.04,5.76C197.87,404.23,191.45,413.29,183.38,413.24z"/>
	<path class="st5" d="M183.81,355.66c0.06,6.81-5.87,13.29-12.11,13.22c-4.74-0.05-8.82-4.39-8.78-9.34
		c0.05-6.82,5.92-13.02,12.31-13.01C180.41,346.54,183.76,350.1,183.81,355.66z"/>
	<path class="st5" d="M127.89,386.21c5.24,0,8.71,3.81,8.65,9.49c-0.07,6.59-5.86,12.75-12.11,12.9c-4.73,0.11-8.88-4.46-8.79-9.7
		C115.75,392.35,121.68,386.21,127.89,386.21z"/>
	<path class="st5" d="M135.12,349.34c-0.08,6.75-5.02,12.29-10.94,12.27c-5.31-0.02-8.82-4.36-8.72-10.76
		c0.1-6.61,5.24-12.44,10.94-12.41C131.44,338.45,135.2,343.15,135.12,349.34z"/>
</g>
</svg>
